<svg width="50" height="50" viewBox="0 0 50 50" fill="none" xmlns="http://www.w3.org/2000/svg">
<path d="M25 0C11.1927 0 0 11.1927 0 25C0 38.8073 11.1927 50 25 50C38.8073 50 50 38.8073 50 25C50 11.1927 38.8073 0 25 0ZM26.7109 30.9245C25.1068 30.8021 24.4349 30.0078 23.1797 29.2474C22.4896 32.8698 21.6458 36.3438 19.1458 38.1589C18.3724 32.6797 20.276 28.5703 21.1615 24.2031C19.6536 21.6641 21.3411 16.5573 24.5234 17.8125C28.4375 19.3646 21.1328 27.2526 26.0365 28.2396C31.1562 29.2656 33.2474 19.3542 30.0729 16.1354C25.4844 11.4818 16.7214 16.0286 17.7995 22.6901C18.0599 24.3177 19.7448 24.8125 18.4714 27.0599C15.5365 26.4089 14.6589 24.0938 14.7734 21.0078C14.9531 15.9557 19.3125 12.4167 23.6823 11.9297C29.2109 11.3151 34.3984 13.9583 35.1172 19.1615C35.9219 25.0312 32.6198 31.3828 26.7109 30.9245Z" fill="#0FA958"/>
</svg>
